# xmcd
#
# Track frame offsets:
# 150
# 33225
# 63499
# 95303
# 122473
# 143602
# 171123
# 205651
# 234994
# 259898
# 285242
# 311835
#
# Disc length: 4536 seconds
#
# Revision: 0
# Processed by: cddbd v1.5.2PL0 Copyright (c) Steve Scherf et al.
# Submitted via: Audion 3.0.2 (http://www.panic.com/audion/)
#
DISCID=9b11b60c
DTITLE=Sarah Dunant - Birth of Venus 5
DYEAR=1900
DGENRE=
TTITLE0=Birth of Venus 5a
TTITLE1=Birth of Venus 5b
TTITLE2=Birth of Venus 5c
TTITLE3=Birth of Venus 5d
TTITLE4=Birth of Venus 5e
TTITLE5=Birth of Venus 5f
TTITLE6=Birth of Venus 5g
TTITLE7=Birth of Venus 5h
TTITLE8=Birth of Venus 5i
TTITLE9=Birth of Venus 5j
TTITLE10=Birth of Venus 5k
TTITLE11=Birth of Venus 5l
EXTD=
EXTT0=
EXTT1=
EXTT2=
EXTT3=
EXTT4=
EXTT5=
EXTT6=
EXTT7=
EXTT8=
EXTT9=
EXTT10=
EXTT11=
PLAYORDER=
